<?xml version="1.0" encoding="UTF-8"?>
<svg width="17px" height="14px" viewBox="0 0 17 14" version="1.1" xmlns="http://www.w3.org/2000/svg" xmlns:xlink="http://www.w3.org/1999/xlink">
    <title>youxiang-4</title>
    <g id="首页" stroke="none" stroke-width="1" fill="none" fill-rule="evenodd">
        <g id="01-首页备份-13" transform="translate(-1394.000000, -2753.000000)" fill="#FFFFFF" fill-rule="nonzero" stroke="#FFFFFF" stroke-width="0.3">
            <g id="编组-8备份" transform="translate(0.000000, 2585.000000)">
                <g id="编组-2" transform="translate(1395.000000, 165.000000)">
                    <g id="youxiang-4" transform="translate(0.000000, 4.000000)">
                        <path d="M0.820964706,3.88471985 C0.521535407,3.73873475 0.397144309,3.37765503 0.543129412,3.07822574 C0.689114515,2.77879644 1.05019423,2.65440534 1.34962353,2.80039044 L7.68002353,5.89034338 C7.77938824,5.93857868 7.89708235,5.93857868 7.99644706,5.89034338 L14.3268471,2.80039044 C14.5205439,2.70595464 14.749908,2.72202837 14.9285402,2.84255681 C15.1071724,2.96308525 15.2079342,3.16975727 15.1928696,3.38472151 C15.177805,3.59968576 15.0492027,3.79028405 14.8555059,3.88471985 L8.52607059,6.97370809 C8.09195294,7.18594338 7.58451765,7.18594338 7.1504,6.97370809 L0.820964706,3.88471985 Z" id="路径"></path>
                        <path d="M2.05,12.4667434 C0.917816263,12.4667434 0,11.5489271 0,10.4167434 L0,2.05660221 C0,0.9240375 0.917435294,0.00660220588 2.05,0.00660220588 L13.6264706,0.00660220588 C14.7590353,0.00660220588 15.6764706,0.9240375 15.6764706,2.05660221 L15.6764706,10.4167434 C15.6764706,11.5489271 14.7586543,12.4667434 13.6264706,12.4667434 L2.05,12.4667434 Z M2.05,11.260861 L13.6264706,11.260861 C14.0926639,11.260861 14.4705882,10.8829367 14.4705882,10.4167434 L14.4705882,2.05660221 C14.4705882,1.5904089 14.0926639,1.21248456 13.6264706,1.21248456 L2.05,1.21248456 C1.5838067,1.21248456 1.20588235,1.5904089 1.20588235,2.05660221 L1.20588235,10.4167434 C1.20588235,10.883661 1.58404706,11.260861 2.05,11.260861 Z" id="形状"></path>
                    </g>
                </g>
            </g>
        </g>
    </g>
</svg>