<?xml version="1.0" encoding="UTF-8"?>
<svg width="16px" height="16px" viewBox="0 0 16 16" version="1.1" xmlns="http://www.w3.org/2000/svg" xmlns:xlink="http://www.w3.org/1999/xlink">
    <title>lianxiwomen-2备份</title>
    <g id="首页" stroke="none" stroke-width="1" fill="none" fill-rule="evenodd">
        <g id="01-首页备份-13" transform="translate(-1395.000000, -2700.000000)" fill="#FFFFFF" fill-rule="nonzero">
            <g id="编组-8备份" transform="translate(0.000000, 2585.000000)">
                <g id="编组-3" transform="translate(1395.000000, 112.000000)">
                    <g id="lianxiwomen-2备份" transform="translate(0.000000, 3.000000)">
                        <path d="M15.433,5.3125 C15.09175,4.876 14.6215,4.577 14.108,4.4675 C13.23675,1.7575 10.886,0.0115 8.107,0.0115 C5.34275,0.0115 2.9975,1.74425 2.117,4.43175 C1.55275,4.49125 1.03175,4.77175 0.6415,5.223 C0.2365,5.693 0.0135,6.30575 0.0135,6.94825 L0.0135,8.93575 C0.0135,10.3305 1.059,11.467 2.344,11.467 L3.544,11.467 C3.93775,11.467 4.259,11.13825 4.259,10.73525 L4.259,5.147 C4.259,4.7885 4.005,4.4895 3.67275,4.42825 C4.03775,3.54075 4.62925,2.80125 5.38975,2.285 C6.17225,1.754 7.11225,1.4735 8.10725,1.4735 C9.09975,1.4735 10.04225,1.754 10.828,2.285 C11.58675,2.7975 12.1855,3.533 12.56325,4.41725 L12.458,4.41725 C12.064,4.41725 11.743,4.746 11.743,5.149 L11.743,10.7375 C11.743,10.88775 11.79,11.0325 11.8755,11.157 C11.77375,11.27775 11.67375,11.4005 11.57775,11.5195 C10.88425,12.372 10.22725,13.17775 9.118,13.371 C8.87125,12.99025 8.45025,12.75425 8.00175,12.75425 C7.26475,12.75425 6.666,13.36725 6.666,14.12125 C6.666,14.87525 7.26475,15.48825 8.00175,15.48825 C8.32545759,15.488076 8.63769164,15.3683284 8.8785,15.152 C9.10236764,14.951627 9.25467185,14.6836242 9.31225,14.38875 C10.06725,14.25675 10.748,13.904 11.3925,13.30975 C11.97875,12.76925 12.4835,12.08025 12.93,11.4655 L13.65775,11.4655 C14.94275,11.4655 15.9885,10.3305 15.9885,8.934 L15.9885,6.94675 C15.9865,6.34875 15.7905,5.7675 15.433,5.31225 L15.433,5.3125 Z M2.82875,10.0035 L2.344,10.0035 C1.8485,10.0035 1.44375,9.52425 1.44375,8.9355 L1.44375,6.9465 C1.44375,6.863 1.4545,6.7775 1.47625,6.67725 C1.48,6.6585 1.48725,6.63825 1.49275,6.616 C1.51625,6.53225 1.5435,6.4635 1.5745,6.40225 L1.57975,6.38925 C1.58175,6.3875 1.58175,6.3855 1.5835,6.38175 C1.66314582,6.2283221 1.78222956,6.09888326 1.9285,6.00675 C1.9865,5.9715 2.04825,5.94175 2.1135,5.91925 L2.12975,5.91375 L2.1335,5.912 L2.13525,5.912 C2.206,5.8895 2.277,5.8785 2.344,5.8785 L2.82875,5.8785 L2.82875,10.0035 L2.82875,10.0035 Z M14.558,8.9355 C14.558,9.52425 14.15325,10.0035 13.658,10.0035 L13.173,10.0035 L13.173,5.8785 L13.658,5.8785 C13.89375,5.8785 14.117,5.98825 14.28575,6.185 C14.4644369,6.3987982 14.5604262,6.66964409 14.55625,6.94825 L14.55625,8.93575 L14.558,8.93575 L14.558,8.9355 Z" id="形状"></path>
                        <path d="M10.19625,9.4 C10.2725,9.311 10.30875,9.19575 10.29975,9.07325 C10.2905275,8.94323618 10.2297816,8.82228435 10.131,8.73725 C10.0512202,8.67049104 9.95000855,8.63480063 9.846,8.63675 C9.7025,8.63675 9.56475,8.69825 9.47925,8.80025 C9.0545,9.27575 8.61175,9.48025 8,9.48025 C7.35925,9.48025 6.9725,9.3035 6.5225,8.804 C6.42874994,8.69801729 6.29374357,8.63776124 6.15225,8.63875 C6.04325,8.63875 5.9435,8.67375 5.86725,8.74075 C5.76725,8.82625 5.70725,8.94525 5.6985,9.07525 C5.68925,9.19775 5.7275,9.31475 5.8055,9.40775 C6.4555,10.14675 7.06875,10.43475 8,10.43475 C8.902,10.431 9.601,10.10225 10.19625,9.40025 L10.19625,9.4 Z" id="路径"></path>
                    </g>
                </g>
            </g>
        </g>
    </g>
</svg>