<?xml version="1.0" encoding="UTF-8"?>
<svg width="20px" height="20px" viewBox="0 0 20 20" version="1.1" xmlns="http://www.w3.org/2000/svg" xmlns:xlink="http://www.w3.org/1999/xlink">
    <title>语言白</title>
    <g id="调整后" stroke="none" stroke-width="1" fill="none" fill-rule="evenodd">
        <g id="06-导航-默认" transform="translate(-1470.000000, -30.000000)" fill="#FFFFFF" fill-rule="nonzero">
            <g id="语言白" transform="translate(1470.000000, 30.000000)">
                <path d="M10,0 C4.47735715,0 0,4.47735717 0,10 C0,15.5226428 4.47735717,20 10,20 C15.5226428,20 20,15.5226428 20,10 C20,4.47735715 15.523647,0 10,0 Z M14.2835626,7.55798775 C16.8239783,8.13937142 18.2809519,9.17963651 18.2809519,9.99899589 C18.2809519,10.8203635 16.8239783,11.8596245 14.2835626,12.4410081 C14.3739331,11.6357064 14.4231348,10.8133347 14.4231348,9.99899589 C14.4231348,9.18465709 14.3739331,8.36328949 14.2835626,7.55798775 Z M18.1042273,7.45757605 C17.0669746,6.78682598 15.6330957,6.29280048 14.0435787,5.98554071 C13.7333066,4.3839743 13.2332563,2.94005422 12.5544733,1.90079325 C15.1982248,2.73990816 17.2684593,4.81276464 18.1042273,7.45757605 L18.1042273,7.45757605 Z M10.0291194,18.2518325 C9.23385883,18.2518325 8.1855608,16.8591224 7.59212773,14.2544432 C8.39542122,14.3438096 9.21678885,14.3930113 10.0291194,14.3930113 C10.8434582,14.3930113 11.6658299,14.3438096 12.4711316,14.2544432 C11.889748,16.7948589 10.8494829,18.2518325 10.0291194,18.2518325 Z M10.0291194,12.886836 C4.91615624,12.886836 1.77628275,11.2049402 1.77628275,9.99899589 C1.77628275,8.79405563 4.91515211,7.11215985 10.0291194,7.11215985 C11.0101416,7.11215985 11.9178632,7.17541922 12.7452555,7.28386384 C12.8537002,8.11125614 12.9169595,9.01797368 12.9169595,9.99899589 C12.9169595,10.9800181 12.8537002,11.8877397 12.7452555,12.715132 C11.9168591,12.8245808 11.0101416,12.886836 10.0291194,12.886836 Z M10.0291194,1.74716337 C10.8494829,1.74716337 11.889748,3.20413695 12.4711316,5.74555679 C11.6603466,5.65377258 10.8450822,5.60717647 10.0291194,5.60598453 C9.21779295,5.60598453 8.3994377,5.65418214 7.59815243,5.74354854 C8.19459786,3.12380761 9.23084647,1.74716337 10.0291194,1.74716337 L10.0291194,1.74716337 Z M7.54493422,1.87066975 C6.87920473,2.85972488 6.34601867,4.25845968 6.01265187,5.98453659 C4.3849784,6.29982928 2.92398834,6.81092479 1.88071092,7.50677779 C2.71782159,4.80531939 4.83934383,2.69432766 7.54493422,1.87066975 Z M1.88171502,12.4922181 C2.92198012,13.1860629 4.3789537,13.6961542 6.00060247,14.0114469 C6.33196104,15.7405362 6.86113063,17.1352545 7.52384777,18.1223014 C4.82776675,17.2941981 2.71558043,15.1865226 1.88171502,12.4922181 L1.88171502,12.4922181 Z M12.5544733,18.1002108 C13.2332563,17.0609499 13.7333066,15.6170298 14.0435787,14.0154634 C15.6330957,13.7071995 17.0669746,13.213174 18.1042273,12.5424239 C17.2679916,15.1871672 15.1980043,17.2601507 12.5544733,18.1002108 Z" id="形状"></path>
                <path d="M6.8,12 C6.12860407,11.9610369 5.6,11.2562315 5.6,10.4 C5.6,9.54376851 6.12860407,8.83896309 6.8,8.8 C7.47139593,8.83896309 8,9.54376851 8,10.4 C8,11.2562315 7.47139593,11.9610369 6.8,12 L6.8,12 Z M6.8,9.9050121 C6.58565678,9.9050121 6.41189727,10.1263781 6.41189727,10.3994469 C6.41189727,10.6725158 6.58565678,10.8938818 6.8,10.8938818 C7.01434322,10.8938818 7.18810273,10.6725158 7.18810273,10.3994469 C7.18810273,10.1263781 7.01434322,9.9050121 6.8,9.9050121 Z" id="形状"></path>
            </g>
        </g>
    </g>
</svg>