<?xml version="1.0" encoding="UTF-8"?>
<svg width="21px" height="22px" viewBox="0 0 21 22" version="1.1" xmlns="http://www.w3.org/2000/svg" xmlns:xlink="http://www.w3.org/1999/xlink">
    <title>登陆</title>
    <g id="调整后" stroke="none" stroke-width="1" fill="none" fill-rule="evenodd">
        <g id="06-导航-默认" transform="translate(-1555.000000, -29.000000)" fill="#333333" fill-rule="nonzero" stroke="#333333" stroke-width="0.1">
            <g id="登陆" transform="translate(1556.000000, 30.000000)">
                <path d="M17.2741781,20 L1.72810175,20 C0.775137989,20 0,19.1804267 0,18.1728336 L0,17.1604194 C0,13.5976859 2.74262059,10.6978426 6.11219102,10.6978426 L12.887809,10.6978426 C16.2573794,10.6978426 19,13.5976859 19,17.1604194 L19,18.1728336 C19,19.1804267 18.224862,20 17.2741781,20 Z M6.11447084,12.1875377 C3.5200384,12.1875377 1.4112071,14.4196698 1.4112071,17.1604194 L1.4112071,18.1728336 C1.4112071,18.3584428 1.55483561,18.5103049 1.73038157,18.5103049 L17.2741781,18.5103049 C17.449724,18.5103049 17.5933525,18.3584428 17.5933525,18.1728336 L17.5933525,17.1604194 C17.5933525,14.4172593 15.4822414,12.1875377 12.8900888,12.1875377 L6.11447084,12.1875377 L6.11447084,12.1875377 Z M9.50227982,10.4905387 C6.76649868,10.4905387 4.54139669,8.13788116 4.54139669,5.24526937 C4.54139669,2.35265759 6.76649868,0 9.50227982,0 C12.238061,0 14.4631629,2.35265759 14.4631629,5.24526937 C14.4631629,8.13788116 12.2357811,10.4905387 9.50227982,10.4905387 Z M9.50227982,1.48728456 C7.54163667,1.48728456 5.94804416,3.17223093 5.94804416,5.24526937 C5.94804416,7.31830782 7.54163667,9.00325419 9.50227982,9.00325419 C11.462923,9.00325419 13.0565155,7.31830782 13.0565155,5.24526937 C13.0565155,3.17223093 11.4606431,1.48728456 9.50227982,1.48728456 Z" id="形状"></path>
            </g>
        </g>
    </g>
</svg>