<?xml version="1.0" encoding="UTF-8"?>
<svg width="22px" height="22px" viewBox="0 0 22 22" version="1.1" xmlns="http://www.w3.org/2000/svg" xmlns:xlink="http://www.w3.org/1999/xlink">
    <title>Search</title>
    <g id="调整后" stroke="none" stroke-width="1" fill="none" fill-rule="evenodd">
        <g id="06-导航-默认" transform="translate(-1594.000000, -30.000000)" fill="#333333" stroke="#FFFFFF" stroke-width="0.8">
            <path d="M1608.14637,35.3230596 C1605.70938,32.8860744 1601.76004,32.8860744 1599.32306,35.3230596 C1596.88607,37.7600449 1596.88607,41.7093836 1599.32306,44.1463689 C1601.76004,46.5833541 1605.70938,46.5833541 1608.14637,44.1463689 C1610.58335,41.7093836 1610.58335,37.7600449 1608.14637,35.3230596 M1614.63501,50.6350137 C1614.14712,51.1216621 1613.35725,51.1216621 1612.86935,50.6350137 L1608.93998,46.7043923 C1605.51847,49.2624158 1600.66696,49.0203394 1597.55865,45.9107811 C1594.14712,42.5004991 1594.14712,36.9701772 1597.55865,33.5586474 C1600.96893,30.1471175 1606.5005,30.1471175 1609.91078,33.5586474 C1613.02034,36.6669578 1613.26242,41.5184677 1610.70439,44.93998 L1614.63501,48.8706014 C1615.12166,49.3572498 1615.12166,50.1471175 1614.63501,50.6350137" id="Search"></path>
        </g>
    </g>
</svg>